<svg width="49" height="59" viewBox="0 0 49 59" fill="none" xmlns="http://www.w3.org/2000/svg">
<path d="M9.01489 40.6792L18.3005 33.4891C18.503 33.3323 18.7388 33.2711 19.0082 33.3054C19.2645 33.3228 19.4775 33.4411 19.6473 33.6604C19.8171 33.8797 19.8784 34.1155 19.831 34.368C19.7837 34.6205 19.6589 34.8251 19.4565 34.9819L10.7527 41.7214L10.6727 41.0954L16.1779 48.2051L15.6449 48.0917L23.2354 42.2142C23.4378 42.0574 23.6737 41.9962 23.943 42.0305C24.2124 42.0647 24.4255 42.1831 24.5822 42.3855C24.752 42.6047 24.8132 42.8406 24.7659 43.0931C24.7186 43.3456 24.5937 43.5502 24.3913 43.707L16.8514 49.5453L16.8832 49.1159L22.5256 56.4028L22.2816 56.3489L30.8588 49.7073C31.0612 49.5506 31.2971 49.4894 31.5665 49.5236C31.8358 49.5579 32.0489 49.6762 32.2056 49.8786C32.3754 50.0979 32.4366 50.3338 32.3893 50.5863C32.342 50.8388 32.2171 51.0434 32.0147 51.2001L22.729 58.3903C22.5266 58.547 22.2908 58.6082 22.0214 58.574C21.752 58.5397 21.539 58.4214 21.3823 58.219L8.84359 42.026C8.68686 41.8236 8.62562 41.5877 8.65988 41.3184C8.69414 41.049 8.81247 40.8359 9.01489 40.6792ZM41.6131 43.7679C41.3769 43.9507 41.1242 44.025 40.8548 43.9908C40.6023 43.9434 40.3977 43.8186 40.241 43.6162L27.7611 27.4991L29.3298 26.2844L41.8097 42.4015C41.9664 42.6039 42.0276 42.8398 41.9934 43.1091C41.9591 43.3785 41.8324 43.5981 41.6131 43.7679ZM22.9939 32.1618C22.7915 32.3185 22.5621 32.3882 22.3058 32.3708C22.0495 32.3534 21.8365 32.2351 21.6667 32.0158C21.5099 31.8134 21.4552 31.5859 21.5026 31.3334C21.5499 31.081 21.6747 30.8763 21.8771 30.7196L33.9207 21.394C34.1231 21.2372 34.3524 21.1676 34.6087 21.185C34.865 21.2024 35.0781 21.3207 35.2479 21.54C35.4177 21.7593 35.4789 21.9951 35.4316 22.2476C35.3712 22.4833 35.2398 22.6794 35.0374 22.8362L22.9939 32.1618Z" fill="#86C8F9"/>
<path d="M48.4899 4.17414C48.586 3.35132 47.997 2.60632 47.1741 2.51014L33.7654 0.942892C32.9426 0.846717 32.1976 1.43578 32.1014 2.25861C32.0052 3.08144 32.5943 3.82643 33.4171 3.92261L45.336 5.31572L43.9429 17.2346C43.8467 18.0574 44.4358 18.8024 45.2586 18.8986C46.0814 18.9948 46.8264 18.4057 46.9226 17.5829L48.4899 4.17414ZM4.93035 39.1766L47.9304 5.17663L46.0696 2.82338L3.06965 36.8234L4.93035 39.1766Z" fill="#E68022"/>
</svg>
